<?xml version="1.0" encoding="utf-8" standalone="no"?>
<!DOCTYPE svg PUBLIC "-//W3C//DTD SVG 1.1//EN"
  "http://www.w3.org/Graphics/SVG/1.1/DTD/svg11.dtd">
<svg xmlns:xlink="http://www.w3.org/1999/xlink" width="864pt" height="576pt" viewBox="0 0 864 576" xmlns="http://www.w3.org/2000/svg" version="1.1">
 <metadata>
  <rdf:RDF xmlns:dc="http://purl.org/dc/elements/1.1/" xmlns:cc="http://creativecommons.org/ns#" xmlns:rdf="http://www.w3.org/1999/02/22-rdf-syntax-ns#">
   <cc:Work>
    <dc:type rdf:resource="http://purl.org/dc/dcmitype/StillImage"/>
    <dc:date>2024-04-04T14:55:40.045971</dc:date>
    <dc:format>image/svg+xml</dc:format>
    <dc:creator>
     <cc:Agent>
      <dc:title>Matplotlib v3.7.2, https://matplotlib.org/</dc:title>
     </cc:Agent>
    </dc:creator>
   </cc:Work>
  </rdf:RDF>
 </metadata>
 <defs>
  <style type="text/css">*{stroke-linejoin: round; stroke-linecap: butt}</style>
 </defs>
 <g id="figure_1">
  <g id="patch_1">
   <path d="M 0 576 
L 864 576 
L 864 0 
L 0 0 
z
" style="fill: #ffffff"/>
  </g>
  <g id="axes_1">
   <g id="patch_2">
    <path d="M 54.02 458.397445 
L 853.2 458.397445 
L 853.2 20.88 
L 54.02 20.88 
z
" style="fill: #ffffff"/>
   </g>
   <g id="matplotlib.axis_1">
    <g id="xtick_1">
     <g id="line2d_1">
      <path d="M 140.451693 458.397445 
L 140.451693 20.88 
" clip-path="url(#p1cb31a0c3d)" style="fill: none; stroke: #cccccc; stroke-width: 0.8; stroke-linecap: round"/>
     </g>
     <g id="text_1">
      <!-- Service Announced -->
      <g style="fill: #262626" transform="translate(70.781787 538.969696) rotate(-45) scale(0.1 -0.1)">
       <defs>
        <path id="DejaVuSans-53" d="M 3425 4513 
L 3425 3897 
Q 3066 4069 2747 4153 
Q 2428 4238 2131 4238 
Q 1616 4238 1336 4038 
Q 1056 3838 1056 3469 
Q 1056 3159 1242 3001 
Q 1428 2844 1947 2747 
L 2328 2669 
Q 3034 2534 3370 2195 
Q 3706 1856 3706 1288 
Q 3706 609 3251 259 
Q 2797 -91 1919 -91 
Q 1588 -91 1214 -16 
Q 841 59 441 206 
L 441 856 
Q 825 641 1194 531 
Q 1563 422 1919 422 
Q 2459 422 2753 634 
Q 3047 847 3047 1241 
Q 3047 1584 2836 1778 
Q 2625 1972 2144 2069 
L 1759 2144 
Q 1053 2284 737 2584 
Q 422 2884 422 3419 
Q 422 4038 858 4394 
Q 1294 4750 2059 4750 
Q 2388 4750 2728 4690 
Q 3069 4631 3425 4513 
z
" transform="scale(0.015625)"/>
        <path id="DejaVuSans-65" d="M 3597 1894 
L 3597 1613 
L 953 1613 
Q 991 1019 1311 708 
Q 1631 397 2203 397 
Q 2534 397 2845 478 
Q 3156 559 3463 722 
L 3463 178 
Q 3153 47 2828 -22 
Q 2503 -91 2169 -91 
Q 1331 -91 842 396 
Q 353 884 353 1716 
Q 353 2575 817 3079 
Q 1281 3584 2069 3584 
Q 2775 3584 3186 3129 
Q 3597 2675 3597 1894 
z
M 3022 2063 
Q 3016 2534 2758 2815 
Q 2500 3097 2075 3097 
Q 1594 3097 1305 2825 
Q 1016 2553 972 2059 
L 3022 2063 
z
" transform="scale(0.015625)"/>
        <path id="DejaVuSans-72" d="M 2631 2963 
Q 2534 3019 2420 3045 
Q 2306 3072 2169 3072 
Q 1681 3072 1420 2755 
Q 1159 2438 1159 1844 
L 1159 0 
L 581 0 
L 581 3500 
L 1159 3500 
L 1159 2956 
Q 1341 3275 1631 3429 
Q 1922 3584 2338 3584 
Q 2397 3584 2469 3576 
Q 2541 3569 2628 3553 
L 2631 2963 
z
" transform="scale(0.015625)"/>
        <path id="DejaVuSans-76" d="M 191 3500 
L 800 3500 
L 1894 563 
L 2988 3500 
L 3597 3500 
L 2284 0 
L 1503 0 
L 191 3500 
z
" transform="scale(0.015625)"/>
        <path id="DejaVuSans-69" d="M 603 3500 
L 1178 3500 
L 1178 0 
L 603 0 
L 603 3500 
z
M 603 4863 
L 1178 4863 
L 1178 4134 
L 603 4134 
L 603 4863 
z
" transform="scale(0.015625)"/>
        <path id="DejaVuSans-63" d="M 3122 3366 
L 3122 2828 
Q 2878 2963 2633 3030 
Q 2388 3097 2138 3097 
Q 1578 3097 1268 2742 
Q 959 2388 959 1747 
Q 959 1106 1268 751 
Q 1578 397 2138 397 
Q 2388 397 2633 464 
Q 2878 531 3122 666 
L 3122 134 
Q 2881 22 2623 -34 
Q 2366 -91 2075 -91 
Q 1284 -91 818 406 
Q 353 903 353 1747 
Q 353 2603 823 3093 
Q 1294 3584 2113 3584 
Q 2378 3584 2631 3529 
Q 2884 3475 3122 3366 
z
" transform="scale(0.015625)"/>
        <path id="DejaVuSans-20" transform="scale(0.015625)"/>
        <path id="DejaVuSans-41" d="M 2188 4044 
L 1331 1722 
L 3047 1722 
L 2188 4044 
z
M 1831 4666 
L 2547 4666 
L 4325 0 
L 3669 0 
L 3244 1197 
L 1141 1197 
L 716 0 
L 50 0 
L 1831 4666 
z
" transform="scale(0.015625)"/>
        <path id="DejaVuSans-6e" d="M 3513 2113 
L 3513 0 
L 2938 0 
L 2938 2094 
Q 2938 2591 2744 2837 
Q 2550 3084 2163 3084 
Q 1697 3084 1428 2787 
Q 1159 2491 1159 1978 
L 1159 0 
L 581 0 
L 581 3500 
L 1159 3500 
L 1159 2956 
Q 1366 3272 1645 3428 
Q 1925 3584 2291 3584 
Q 2894 3584 3203 3211 
Q 3513 2838 3513 2113 
z
" transform="scale(0.015625)"/>
        <path id="DejaVuSans-6f" d="M 1959 3097 
Q 1497 3097 1228 2736 
Q 959 2375 959 1747 
Q 959 1119 1226 758 
Q 1494 397 1959 397 
Q 2419 397 2687 759 
Q 2956 1122 2956 1747 
Q 2956 2369 2687 2733 
Q 2419 3097 1959 3097 
z
M 1959 3584 
Q 2709 3584 3137 3096 
Q 3566 2609 3566 1747 
Q 3566 888 3137 398 
Q 2709 -91 1959 -91 
Q 1206 -91 779 398 
Q 353 888 353 1747 
Q 353 2609 779 3096 
Q 1206 3584 1959 3584 
z
" transform="scale(0.015625)"/>
        <path id="DejaVuSans-75" d="M 544 1381 
L 544 3500 
L 1119 3500 
L 1119 1403 
Q 1119 906 1312 657 
Q 1506 409 1894 409 
Q 2359 409 2629 706 
Q 2900 1003 2900 1516 
L 2900 3500 
L 3475 3500 
L 3475 0 
L 2900 0 
L 2900 538 
Q 2691 219 2414 64 
Q 2138 -91 1772 -91 
Q 1169 -91 856 284 
Q 544 659 544 1381 
z
M 1991 3584 
L 1991 3584 
z
" transform="scale(0.015625)"/>
        <path id="DejaVuSans-64" d="M 2906 2969 
L 2906 4863 
L 3481 4863 
L 3481 0 
L 2906 0 
L 2906 525 
Q 2725 213 2448 61 
Q 2172 -91 1784 -91 
Q 1150 -91 751 415 
Q 353 922 353 1747 
Q 353 2572 751 3078 
Q 1150 3584 1784 3584 
Q 2172 3584 2448 3432 
Q 2725 3281 2906 2969 
z
M 947 1747 
Q 947 1113 1208 752 
Q 1469 391 1925 391 
Q 2381 391 2643 752 
Q 2906 1113 2906 1747 
Q 2906 2381 2643 2742 
Q 2381 3103 1925 3103 
Q 1469 3103 1208 2742 
Q 947 2381 947 1747 
z
" transform="scale(0.015625)"/>
       </defs>
       <use xlink:href="#DejaVuSans-53"/>
       <use xlink:href="#DejaVuSans-65" x="63.476562"/>
       <use xlink:href="#DejaVuSans-72" x="125"/>
       <use xlink:href="#DejaVuSans-76" x="166.113281"/>
       <use xlink:href="#DejaVuSans-69" x="225.292969"/>
       <use xlink:href="#DejaVuSans-63" x="253.076172"/>
       <use xlink:href="#DejaVuSans-65" x="308.056641"/>
       <use xlink:href="#DejaVuSans-20" x="369.580078"/>
       <use xlink:href="#DejaVuSans-41" x="401.367188"/>
       <use xlink:href="#DejaVuSans-6e" x="469.775391"/>
       <use xlink:href="#DejaVuSans-6e" x="533.154297"/>
       <use xlink:href="#DejaVuSans-6f" x="596.533203"/>
       <use xlink:href="#DejaVuSans-75" x="657.714844"/>
       <use xlink:href="#DejaVuSans-6e" x="721.09375"/>
       <use xlink:href="#DejaVuSans-63" x="784.472656"/>
       <use xlink:href="#DejaVuSans-65" x="839.453125"/>
       <use xlink:href="#DejaVuSans-64" x="900.976562"/>
      </g>
     </g>
    </g>
    <g id="xtick_2">
     <g id="line2d_2">
      <path d="M 265.715016 458.397445 
L 265.715016 20.88 
" clip-path="url(#p1cb31a0c3d)" style="fill: none; stroke: #cccccc; stroke-width: 0.8; stroke-linecap: round"/>
     </g>
     <g id="text_2">
      <!-- Bid Offered -->
      <g style="fill: #262626" transform="translate(224.208952 510.805854) rotate(-45) scale(0.1 -0.1)">
       <defs>
        <path id="DejaVuSans-42" d="M 1259 2228 
L 1259 519 
L 2272 519 
Q 2781 519 3026 730 
Q 3272 941 3272 1375 
Q 3272 1813 3026 2020 
Q 2781 2228 2272 2228 
L 1259 2228 
z
M 1259 4147 
L 1259 2741 
L 2194 2741 
Q 2656 2741 2882 2914 
Q 3109 3088 3109 3444 
Q 3109 3797 2882 3972 
Q 2656 4147 2194 4147 
L 1259 4147 
z
M 628 4666 
L 2241 4666 
Q 2963 4666 3353 4366 
Q 3744 4066 3744 3513 
Q 3744 3084 3544 2831 
Q 3344 2578 2956 2516 
Q 3422 2416 3680 2098 
Q 3938 1781 3938 1306 
Q 3938 681 3513 340 
Q 3088 0 2303 0 
L 628 0 
L 628 4666 
z
" transform="scale(0.015625)"/>
        <path id="DejaVuSans-4f" d="M 2522 4238 
Q 1834 4238 1429 3725 
Q 1025 3213 1025 2328 
Q 1025 1447 1429 934 
Q 1834 422 2522 422 
Q 3209 422 3611 934 
Q 4013 1447 4013 2328 
Q 4013 3213 3611 3725 
Q 3209 4238 2522 4238 
z
M 2522 4750 
Q 3503 4750 4090 4092 
Q 4678 3434 4678 2328 
Q 4678 1225 4090 567 
Q 3503 -91 2522 -91 
Q 1538 -91 948 565 
Q 359 1222 359 2328 
Q 359 3434 948 4092 
Q 1538 4750 2522 4750 
z
" transform="scale(0.015625)"/>
        <path id="DejaVuSans-66" d="M 2375 4863 
L 2375 4384 
L 1825 4384 
Q 1516 4384 1395 4259 
Q 1275 4134 1275 3809 
L 1275 3500 
L 2222 3500 
L 2222 3053 
L 1275 3053 
L 1275 0 
L 697 0 
L 697 3053 
L 147 3053 
L 147 3500 
L 697 3500 
L 697 3744 
Q 697 4328 969 4595 
Q 1241 4863 1831 4863 
L 2375 4863 
z
" transform="scale(0.015625)"/>
       </defs>
       <use xlink:href="#DejaVuSans-42"/>
       <use xlink:href="#DejaVuSans-69" x="68.603516"/>
       <use xlink:href="#DejaVuSans-64" x="96.386719"/>
       <use xlink:href="#DejaVuSans-20" x="159.863281"/>
       <use xlink:href="#DejaVuSans-4f" x="191.650391"/>
       <use xlink:href="#DejaVuSans-66" x="270.361328"/>
       <use xlink:href="#DejaVuSans-66" x="305.566406"/>
       <use xlink:href="#DejaVuSans-65" x="340.771484"/>
       <use xlink:href="#DejaVuSans-72" x="402.294922"/>
       <use xlink:href="#DejaVuSans-65" x="441.158203"/>
       <use xlink:href="#DejaVuSans-64" x="502.681641"/>
      </g>
     </g>
    </g>
    <g id="xtick_3">
     <g id="line2d_3">
      <path d="M 390.978339 458.397445 
L 390.978339 20.88 
" clip-path="url(#p1cb31a0c3d)" style="fill: none; stroke: #cccccc; stroke-width: 0.8; stroke-linecap: round"/>
     </g>
     <g id="text_3">
      <!-- Winner Choosen -->
      <g style="fill: #262626" transform="translate(331.655394 528.622735) rotate(-45) scale(0.1 -0.1)">
       <defs>
        <path id="DejaVuSans-57" d="M 213 4666 
L 850 4666 
L 1831 722 
L 2809 4666 
L 3519 4666 
L 4500 722 
L 5478 4666 
L 6119 4666 
L 4947 0 
L 4153 0 
L 3169 4050 
L 2175 0 
L 1381 0 
L 213 4666 
z
" transform="scale(0.015625)"/>
        <path id="DejaVuSans-43" d="M 4122 4306 
L 4122 3641 
Q 3803 3938 3442 4084 
Q 3081 4231 2675 4231 
Q 1875 4231 1450 3742 
Q 1025 3253 1025 2328 
Q 1025 1406 1450 917 
Q 1875 428 2675 428 
Q 3081 428 3442 575 
Q 3803 722 4122 1019 
L 4122 359 
Q 3791 134 3420 21 
Q 3050 -91 2638 -91 
Q 1578 -91 968 557 
Q 359 1206 359 2328 
Q 359 3453 968 4101 
Q 1578 4750 2638 4750 
Q 3056 4750 3426 4639 
Q 3797 4528 4122 4306 
z
" transform="scale(0.015625)"/>
        <path id="DejaVuSans-68" d="M 3513 2113 
L 3513 0 
L 2938 0 
L 2938 2094 
Q 2938 2591 2744 2837 
Q 2550 3084 2163 3084 
Q 1697 3084 1428 2787 
Q 1159 2491 1159 1978 
L 1159 0 
L 581 0 
L 581 4863 
L 1159 4863 
L 1159 2956 
Q 1366 3272 1645 3428 
Q 1925 3584 2291 3584 
Q 2894 3584 3203 3211 
Q 3513 2838 3513 2113 
z
" transform="scale(0.015625)"/>
        <path id="DejaVuSans-73" d="M 2834 3397 
L 2834 2853 
Q 2591 2978 2328 3040 
Q 2066 3103 1784 3103 
Q 1356 3103 1142 2972 
Q 928 2841 928 2578 
Q 928 2378 1081 2264 
Q 1234 2150 1697 2047 
L 1894 2003 
Q 2506 1872 2764 1633 
Q 3022 1394 3022 966 
Q 3022 478 2636 193 
Q 2250 -91 1575 -91 
Q 1294 -91 989 -36 
Q 684 19 347 128 
L 347 722 
Q 666 556 975 473 
Q 1284 391 1588 391 
Q 1994 391 2212 530 
Q 2431 669 2431 922 
Q 2431 1156 2273 1281 
Q 2116 1406 1581 1522 
L 1381 1569 
Q 847 1681 609 1914 
Q 372 2147 372 2553 
Q 372 3047 722 3315 
Q 1072 3584 1716 3584 
Q 2034 3584 2315 3537 
Q 2597 3491 2834 3397 
z
" transform="scale(0.015625)"/>
       </defs>
       <use xlink:href="#DejaVuSans-57"/>
       <use xlink:href="#DejaVuSans-69" x="96.626953"/>
       <use xlink:href="#DejaVuSans-6e" x="124.410156"/>
       <use xlink:href="#DejaVuSans-6e" x="187.789062"/>
       <use xlink:href="#DejaVuSans-65" x="251.167969"/>
       <use xlink:href="#DejaVuSans-72" x="312.691406"/>
       <use xlink:href="#DejaVuSans-20" x="353.804688"/>
       <use xlink:href="#DejaVuSans-43" x="385.591797"/>
       <use xlink:href="#DejaVuSans-68" x="455.416016"/>
       <use xlink:href="#DejaVuSans-6f" x="518.794922"/>
       <use xlink:href="#DejaVuSans-6f" x="579.976562"/>
       <use xlink:href="#DejaVuSans-73" x="641.158203"/>
       <use xlink:href="#DejaVuSans-65" x="693.257812"/>
       <use xlink:href="#DejaVuSans-6e" x="754.78125"/>
      </g>
     </g>
    </g>
    <g id="xtick_4">
     <g id="line2d_4">
      <path d="M 516.241661 458.397445 
L 516.241661 20.88 
" clip-path="url(#p1cb31a0c3d)" style="fill: none; stroke: #cccccc; stroke-width: 0.8; stroke-linecap: round"/>
     </g>
     <g id="text_4">
      <!-- Service Deployment -->
      <g style="fill: #262626" transform="translate(443.135659 542.405793) rotate(-45) scale(0.1 -0.1)">
       <defs>
        <path id="DejaVuSans-44" d="M 1259 4147 
L 1259 519 
L 2022 519 
Q 2988 519 3436 956 
Q 3884 1394 3884 2338 
Q 3884 3275 3436 3711 
Q 2988 4147 2022 4147 
L 1259 4147 
z
M 628 4666 
L 1925 4666 
Q 3281 4666 3915 4102 
Q 4550 3538 4550 2338 
Q 4550 1131 3912 565 
Q 3275 0 1925 0 
L 628 0 
L 628 4666 
z
" transform="scale(0.015625)"/>
        <path id="DejaVuSans-70" d="M 1159 525 
L 1159 -1331 
L 581 -1331 
L 581 3500 
L 1159 3500 
L 1159 2969 
Q 1341 3281 1617 3432 
Q 1894 3584 2278 3584 
Q 2916 3584 3314 3078 
Q 3713 2572 3713 1747 
Q 3713 922 3314 415 
Q 2916 -91 2278 -91 
Q 1894 -91 1617 61 
Q 1341 213 1159 525 
z
M 3116 1747 
Q 3116 2381 2855 2742 
Q 2594 3103 2138 3103 
Q 1681 3103 1420 2742 
Q 1159 2381 1159 1747 
Q 1159 1113 1420 752 
Q 1681 391 2138 391 
Q 2594 391 2855 752 
Q 3116 1113 3116 1747 
z
" transform="scale(0.015625)"/>
        <path id="DejaVuSans-6c" d="M 603 4863 
L 1178 4863 
L 1178 0 
L 603 0 
L 603 4863 
z
" transform="scale(0.015625)"/>
        <path id="DejaVuSans-79" d="M 2059 -325 
Q 1816 -950 1584 -1140 
Q 1353 -1331 966 -1331 
L 506 -1331 
L 506 -850 
L 844 -850 
Q 1081 -850 1212 -737 
Q 1344 -625 1503 -206 
L 1606 56 
L 191 3500 
L 800 3500 
L 1894 763 
L 2988 3500 
L 3597 3500 
L 2059 -325 
z
" transform="scale(0.015625)"/>
        <path id="DejaVuSans-6d" d="M 3328 2828 
Q 3544 3216 3844 3400 
Q 4144 3584 4550 3584 
Q 5097 3584 5394 3201 
Q 5691 2819 5691 2113 
L 5691 0 
L 5113 0 
L 5113 2094 
Q 5113 2597 4934 2840 
Q 4756 3084 4391 3084 
Q 3944 3084 3684 2787 
Q 3425 2491 3425 1978 
L 3425 0 
L 2847 0 
L 2847 2094 
Q 2847 2600 2669 2842 
Q 2491 3084 2119 3084 
Q 1678 3084 1418 2786 
Q 1159 2488 1159 1978 
L 1159 0 
L 581 0 
L 581 3500 
L 1159 3500 
L 1159 2956 
Q 1356 3278 1631 3431 
Q 1906 3584 2284 3584 
Q 2666 3584 2933 3390 
Q 3200 3197 3328 2828 
z
" transform="scale(0.015625)"/>
        <path id="DejaVuSans-74" d="M 1172 4494 
L 1172 3500 
L 2356 3500 
L 2356 3053 
L 1172 3053 
L 1172 1153 
Q 1172 725 1289 603 
Q 1406 481 1766 481 
L 2356 481 
L 2356 0 
L 1766 0 
Q 1100 0 847 248 
Q 594 497 594 1153 
L 594 3053 
L 172 3053 
L 172 3500 
L 594 3500 
L 594 4494 
L 1172 4494 
z
" transform="scale(0.015625)"/>
       </defs>
       <use xlink:href="#DejaVuSans-53"/>
       <use xlink:href="#DejaVuSans-65" x="63.476562"/>
       <use xlink:href="#DejaVuSans-72" x="125"/>
       <use xlink:href="#DejaVuSans-76" x="166.113281"/>
       <use xlink:href="#DejaVuSans-69" x="225.292969"/>
       <use xlink:href="#DejaVuSans-63" x="253.076172"/>
       <use xlink:href="#DejaVuSans-65" x="308.056641"/>
       <use xlink:href="#DejaVuSans-20" x="369.580078"/>
       <use xlink:href="#DejaVuSans-44" x="401.367188"/>
       <use xlink:href="#DejaVuSans-65" x="478.369141"/>
       <use xlink:href="#DejaVuSans-70" x="539.892578"/>
       <use xlink:href="#DejaVuSans-6c" x="603.369141"/>
       <use xlink:href="#DejaVuSans-6f" x="631.152344"/>
       <use xlink:href="#DejaVuSans-79" x="692.333984"/>
       <use xlink:href="#DejaVuSans-6d" x="751.513672"/>
       <use xlink:href="#DejaVuSans-65" x="848.925781"/>
       <use xlink:href="#DejaVuSans-6e" x="910.449219"/>
       <use xlink:href="#DejaVuSans-74" x="973.828125"/>
      </g>
     </g>
    </g>
    <g id="xtick_5">
     <g id="line2d_5">
      <path d="M 641.504984 458.397445 
L 641.504984 20.88 
" clip-path="url(#p1cb31a0c3d)" style="fill: none; stroke: #cccccc; stroke-width: 0.8; stroke-linecap: round"/>
     </g>
     <g id="text_5">
      <!-- Confirm Deployment -->
      <g style="fill: #262626" transform="translate(566.664361 544.140414) rotate(-45) scale(0.1 -0.1)">
       <use xlink:href="#DejaVuSans-43"/>
       <use xlink:href="#DejaVuSans-6f" x="69.824219"/>
       <use xlink:href="#DejaVuSans-6e" x="131.005859"/>
       <use xlink:href="#DejaVuSans-66" x="194.384766"/>
       <use xlink:href="#DejaVuSans-69" x="229.589844"/>
       <use xlink:href="#DejaVuSans-72" x="257.373047"/>
       <use xlink:href="#DejaVuSans-6d" x="296.736328"/>
       <use xlink:href="#DejaVuSans-20" x="394.148438"/>
       <use xlink:href="#DejaVuSans-44" x="425.935547"/>
       <use xlink:href="#DejaVuSans-65" x="502.9375"/>
       <use xlink:href="#DejaVuSans-70" x="564.460938"/>
       <use xlink:href="#DejaVuSans-6c" x="627.9375"/>
       <use xlink:href="#DejaVuSans-6f" x="655.720703"/>
       <use xlink:href="#DejaVuSans-79" x="716.902344"/>
       <use xlink:href="#DejaVuSans-6d" x="776.082031"/>
       <use xlink:href="#DejaVuSans-65" x="873.494141"/>
       <use xlink:href="#DejaVuSans-6e" x="935.017578"/>
       <use xlink:href="#DejaVuSans-74" x="998.396484"/>
      </g>
     </g>
    </g>
    <g id="xtick_6">
     <g id="line2d_6">
      <path d="M 766.768307 458.397445 
L 766.768307 20.88 
" clip-path="url(#p1cb31a0c3d)" style="fill: none; stroke: #cccccc; stroke-width: 0.8; stroke-linecap: round"/>
     </g>
     <g id="text_6">
      <!-- Federation Completed -->
      <g style="fill: #262626" transform="translate(686.828781 549.239317) rotate(-45) scale(0.1 -0.1)">
       <defs>
        <path id="DejaVuSans-46" d="M 628 4666 
L 3309 4666 
L 3309 4134 
L 1259 4134 
L 1259 2759 
L 3109 2759 
L 3109 2228 
L 1259 2228 
L 1259 0 
L 628 0 
L 628 4666 
z
" transform="scale(0.015625)"/>
        <path id="DejaVuSans-61" d="M 2194 1759 
Q 1497 1759 1228 1600 
Q 959 1441 959 1056 
Q 959 750 1161 570 
Q 1363 391 1709 391 
Q 2188 391 2477 730 
Q 2766 1069 2766 1631 
L 2766 1759 
L 2194 1759 
z
M 3341 1997 
L 3341 0 
L 2766 0 
L 2766 531 
Q 2569 213 2275 61 
Q 1981 -91 1556 -91 
Q 1019 -91 701 211 
Q 384 513 384 1019 
Q 384 1609 779 1909 
Q 1175 2209 1959 2209 
L 2766 2209 
L 2766 2266 
Q 2766 2663 2505 2880 
Q 2244 3097 1772 3097 
Q 1472 3097 1187 3025 
Q 903 2953 641 2809 
L 641 3341 
Q 956 3463 1253 3523 
Q 1550 3584 1831 3584 
Q 2591 3584 2966 3190 
Q 3341 2797 3341 1997 
z
" transform="scale(0.015625)"/>
       </defs>
       <use xlink:href="#DejaVuSans-46"/>
       <use xlink:href="#DejaVuSans-65" x="52.019531"/>
       <use xlink:href="#DejaVuSans-64" x="113.542969"/>
       <use xlink:href="#DejaVuSans-65" x="177.019531"/>
       <use xlink:href="#DejaVuSans-72" x="238.542969"/>
       <use xlink:href="#DejaVuSans-61" x="279.65625"/>
       <use xlink:href="#DejaVuSans-74" x="340.935547"/>
       <use xlink:href="#DejaVuSans-69" x="380.144531"/>
       <use xlink:href="#DejaVuSans-6f" x="407.927734"/>
       <use xlink:href="#DejaVuSans-6e" x="469.109375"/>
       <use xlink:href="#DejaVuSans-20" x="532.488281"/>
       <use xlink:href="#DejaVuSans-43" x="564.275391"/>
       <use xlink:href="#DejaVuSans-6f" x="634.099609"/>
       <use xlink:href="#DejaVuSans-6d" x="695.28125"/>
       <use xlink:href="#DejaVuSans-70" x="792.693359"/>
       <use xlink:href="#DejaVuSans-6c" x="856.169922"/>
       <use xlink:href="#DejaVuSans-65" x="883.953125"/>
       <use xlink:href="#DejaVuSans-74" x="945.476562"/>
       <use xlink:href="#DejaVuSans-65" x="984.685547"/>
       <use xlink:href="#DejaVuSans-64" x="1046.208984"/>
      </g>
     </g>
    </g>
    <g id="text_7">
     <!-- Phases -->
     <g style="fill: #262626" transform="translate(436.076406 562.308316) scale(0.1 -0.1)">
      <defs>
       <path id="DejaVuSans-50" d="M 1259 4147 
L 1259 2394 
L 2053 2394 
Q 2494 2394 2734 2622 
Q 2975 2850 2975 3272 
Q 2975 3691 2734 3919 
Q 2494 4147 2053 4147 
L 1259 4147 
z
M 628 4666 
L 2053 4666 
Q 2838 4666 3239 4311 
Q 3641 3956 3641 3272 
Q 3641 2581 3239 2228 
Q 2838 1875 2053 1875 
L 1259 1875 
L 1259 0 
L 628 0 
L 628 4666 
z
" transform="scale(0.015625)"/>
      </defs>
      <use xlink:href="#DejaVuSans-50"/>
      <use xlink:href="#DejaVuSans-68" x="60.302734"/>
      <use xlink:href="#DejaVuSans-61" x="123.681641"/>
      <use xlink:href="#DejaVuSans-73" x="184.960938"/>
      <use xlink:href="#DejaVuSans-65" x="237.060547"/>
      <use xlink:href="#DejaVuSans-73" x="298.583984"/>
     </g>
    </g>
   </g>
   <g id="matplotlib.axis_2">
    <g id="ytick_1">
     <g id="line2d_7">
      <path d="M 54.02 458.397445 
L 853.2 458.397445 
" clip-path="url(#p1cb31a0c3d)" style="fill: none; stroke: #cccccc; stroke-width: 0.8; stroke-linecap: round"/>
     </g>
     <g id="text_8">
      <!-- 0.0 -->
      <g style="fill: #262626" transform="translate(31.116875 462.196664) scale(0.1 -0.1)">
       <defs>
        <path id="DejaVuSans-30" d="M 2034 4250 
Q 1547 4250 1301 3770 
Q 1056 3291 1056 2328 
Q 1056 1369 1301 889 
Q 1547 409 2034 409 
Q 2525 409 2770 889 
Q 3016 1369 3016 2328 
Q 3016 3291 2770 3770 
Q 2525 4250 2034 4250 
z
M 2034 4750 
Q 2819 4750 3233 4129 
Q 3647 3509 3647 2328 
Q 3647 1150 3233 529 
Q 2819 -91 2034 -91 
Q 1250 -91 836 529 
Q 422 1150 422 2328 
Q 422 3509 836 4129 
Q 1250 4750 2034 4750 
z
" transform="scale(0.015625)"/>
        <path id="DejaVuSans-2e" d="M 684 794 
L 1344 794 
L 1344 0 
L 684 0 
L 684 794 
z
" transform="scale(0.015625)"/>
       </defs>
       <use xlink:href="#DejaVuSans-30"/>
       <use xlink:href="#DejaVuSans-2e" x="63.623047"/>
       <use xlink:href="#DejaVuSans-30" x="95.410156"/>
      </g>
     </g>
    </g>
    <g id="ytick_2">
     <g id="line2d_8">
      <path d="M 54.02 402.485919 
L 853.2 402.485919 
" clip-path="url(#p1cb31a0c3d)" style="fill: none; stroke: #cccccc; stroke-width: 0.8; stroke-linecap: round"/>
     </g>
     <g id="text_9">
      <!-- 2.5 -->
      <g style="fill: #262626" transform="translate(31.116875 406.285138) scale(0.1 -0.1)">
       <defs>
        <path id="DejaVuSans-32" d="M 1228 531 
L 3431 531 
L 3431 0 
L 469 0 
L 469 531 
Q 828 903 1448 1529 
Q 2069 2156 2228 2338 
Q 2531 2678 2651 2914 
Q 2772 3150 2772 3378 
Q 2772 3750 2511 3984 
Q 2250 4219 1831 4219 
Q 1534 4219 1204 4116 
Q 875 4013 500 3803 
L 500 4441 
Q 881 4594 1212 4672 
Q 1544 4750 1819 4750 
Q 2544 4750 2975 4387 
Q 3406 4025 3406 3419 
Q 3406 3131 3298 2873 
Q 3191 2616 2906 2266 
Q 2828 2175 2409 1742 
Q 1991 1309 1228 531 
z
" transform="scale(0.015625)"/>
        <path id="DejaVuSans-35" d="M 691 4666 
L 3169 4666 
L 3169 4134 
L 1269 4134 
L 1269 2991 
Q 1406 3038 1543 3061 
Q 1681 3084 1819 3084 
Q 2600 3084 3056 2656 
Q 3513 2228 3513 1497 
Q 3513 744 3044 326 
Q 2575 -91 1722 -91 
Q 1428 -91 1123 -41 
Q 819 9 494 109 
L 494 744 
Q 775 591 1075 516 
Q 1375 441 1709 441 
Q 2250 441 2565 725 
Q 2881 1009 2881 1497 
Q 2881 1984 2565 2268 
Q 2250 2553 1709 2553 
Q 1456 2553 1204 2497 
Q 953 2441 691 2322 
L 691 4666 
z
" transform="scale(0.015625)"/>
       </defs>
       <use xlink:href="#DejaVuSans-32"/>
       <use xlink:href="#DejaVuSans-2e" x="63.623047"/>
       <use xlink:href="#DejaVuSans-35" x="95.410156"/>
      </g>
     </g>
    </g>
    <g id="ytick_3">
     <g id="line2d_9">
      <path d="M 54.02 346.574393 
L 853.2 346.574393 
" clip-path="url(#p1cb31a0c3d)" style="fill: none; stroke: #cccccc; stroke-width: 0.8; stroke-linecap: round"/>
     </g>
     <g id="text_10">
      <!-- 5.0 -->
      <g style="fill: #262626" transform="translate(31.116875 350.373612) scale(0.1 -0.1)">
       <use xlink:href="#DejaVuSans-35"/>
       <use xlink:href="#DejaVuSans-2e" x="63.623047"/>
       <use xlink:href="#DejaVuSans-30" x="95.410156"/>
      </g>
     </g>
    </g>
    <g id="ytick_4">
     <g id="line2d_10">
      <path d="M 54.02 290.662867 
L 853.2 290.662867 
" clip-path="url(#p1cb31a0c3d)" style="fill: none; stroke: #cccccc; stroke-width: 0.8; stroke-linecap: round"/>
     </g>
     <g id="text_11">
      <!-- 7.5 -->
      <g style="fill: #262626" transform="translate(31.116875 294.462085) scale(0.1 -0.1)">
       <defs>
        <path id="DejaVuSans-37" d="M 525 4666 
L 3525 4666 
L 3525 4397 
L 1831 0 
L 1172 0 
L 2766 4134 
L 525 4134 
L 525 4666 
z
" transform="scale(0.015625)"/>
       </defs>
       <use xlink:href="#DejaVuSans-37"/>
       <use xlink:href="#DejaVuSans-2e" x="63.623047"/>
       <use xlink:href="#DejaVuSans-35" x="95.410156"/>
      </g>
     </g>
    </g>
    <g id="ytick_5">
     <g id="line2d_11">
      <path d="M 54.02 234.751341 
L 853.2 234.751341 
" clip-path="url(#p1cb31a0c3d)" style="fill: none; stroke: #cccccc; stroke-width: 0.8; stroke-linecap: round"/>
     </g>
     <g id="text_12">
      <!-- 10.0 -->
      <g style="fill: #262626" transform="translate(24.754375 238.550559) scale(0.1 -0.1)">
       <defs>
        <path id="DejaVuSans-31" d="M 794 531 
L 1825 531 
L 1825 4091 
L 703 3866 
L 703 4441 
L 1819 4666 
L 2450 4666 
L 2450 531 
L 3481 531 
L 3481 0 
L 794 0 
L 794 531 
z
" transform="scale(0.015625)"/>
       </defs>
       <use xlink:href="#DejaVuSans-31"/>
       <use xlink:href="#DejaVuSans-30" x="63.623047"/>
       <use xlink:href="#DejaVuSans-2e" x="127.246094"/>
       <use xlink:href="#DejaVuSans-30" x="159.033203"/>
      </g>
     </g>
    </g>
    <g id="ytick_6">
     <g id="line2d_12">
      <path d="M 54.02 178.839815 
L 853.2 178.839815 
" clip-path="url(#p1cb31a0c3d)" style="fill: none; stroke: #cccccc; stroke-width: 0.8; stroke-linecap: round"/>
     </g>
     <g id="text_13">
      <!-- 12.5 -->
      <g style="fill: #262626" transform="translate(24.754375 182.639033) scale(0.1 -0.1)">
       <use xlink:href="#DejaVuSans-31"/>
       <use xlink:href="#DejaVuSans-32" x="63.623047"/>
       <use xlink:href="#DejaVuSans-2e" x="127.246094"/>
       <use xlink:href="#DejaVuSans-35" x="159.033203"/>
      </g>
     </g>
    </g>
    <g id="ytick_7">
     <g id="line2d_13">
      <path d="M 54.02 122.928289 
L 853.2 122.928289 
" clip-path="url(#p1cb31a0c3d)" style="fill: none; stroke: #cccccc; stroke-width: 0.8; stroke-linecap: round"/>
     </g>
     <g id="text_14">
      <!-- 15.0 -->
      <g style="fill: #262626" transform="translate(24.754375 126.727507) scale(0.1 -0.1)">
       <use xlink:href="#DejaVuSans-31"/>
       <use xlink:href="#DejaVuSans-35" x="63.623047"/>
       <use xlink:href="#DejaVuSans-2e" x="127.246094"/>
       <use xlink:href="#DejaVuSans-30" x="159.033203"/>
      </g>
     </g>
    </g>
    <g id="ytick_8">
     <g id="line2d_14">
      <path d="M 54.02 67.016763 
L 853.2 67.016763 
" clip-path="url(#p1cb31a0c3d)" style="fill: none; stroke: #cccccc; stroke-width: 0.8; stroke-linecap: round"/>
     </g>
     <g id="text_15">
      <!-- 17.5 -->
      <g style="fill: #262626" transform="translate(24.754375 70.815981) scale(0.1 -0.1)">
       <use xlink:href="#DejaVuSans-31"/>
       <use xlink:href="#DejaVuSans-37" x="63.623047"/>
       <use xlink:href="#DejaVuSans-2e" x="127.246094"/>
       <use xlink:href="#DejaVuSans-35" x="159.033203"/>
      </g>
     </g>
    </g>
    <g id="text_16">
     <!-- Time (s) -->
     <g style="fill: #262626" transform="translate(18.674687 259.967629) rotate(-90) scale(0.1 -0.1)">
      <defs>
       <path id="DejaVuSans-54" d="M -19 4666 
L 3928 4666 
L 3928 4134 
L 2272 4134 
L 2272 0 
L 1638 0 
L 1638 4134 
L -19 4134 
L -19 4666 
z
" transform="scale(0.015625)"/>
       <path id="DejaVuSans-28" d="M 1984 4856 
Q 1566 4138 1362 3434 
Q 1159 2731 1159 2009 
Q 1159 1288 1364 580 
Q 1569 -128 1984 -844 
L 1484 -844 
Q 1016 -109 783 600 
Q 550 1309 550 2009 
Q 550 2706 781 3412 
Q 1013 4119 1484 4856 
L 1984 4856 
z
" transform="scale(0.015625)"/>
       <path id="DejaVuSans-29" d="M 513 4856 
L 1013 4856 
Q 1481 4119 1714 3412 
Q 1947 2706 1947 2009 
Q 1947 1309 1714 600 
Q 1481 -109 1013 -844 
L 513 -844 
Q 928 -128 1133 580 
Q 1338 1288 1338 2009 
Q 1338 2731 1133 3434 
Q 928 4138 513 4856 
z
" transform="scale(0.015625)"/>
      </defs>
      <use xlink:href="#DejaVuSans-54"/>
      <use xlink:href="#DejaVuSans-69" x="57.958984"/>
      <use xlink:href="#DejaVuSans-6d" x="85.742188"/>
      <use xlink:href="#DejaVuSans-65" x="183.154297"/>
      <use xlink:href="#DejaVuSans-20" x="244.677734"/>
      <use xlink:href="#DejaVuSans-28" x="276.464844"/>
      <use xlink:href="#DejaVuSans-73" x="315.478516"/>
      <use xlink:href="#DejaVuSans-29" x="367.578125"/>
     </g>
    </g>
   </g>
   <g id="patch_3">
    <path d="M 90.346364 458.397445 
L 190.557022 458.397445 
L 190.557022 420.699582 
L 90.346364 420.699582 
z
" clip-path="url(#p1cb31a0c3d)" style="fill: #355f8d; stroke: #808080; stroke-linejoin: miter"/>
   </g>
   <g id="patch_4">
    <path d="M 215.609687 458.397445 
L 315.820345 458.397445 
L 315.820345 346.91928 
L 215.609687 346.91928 
z
" clip-path="url(#p1cb31a0c3d)" style="fill: #287d8e; stroke: #808080; stroke-linejoin: miter"/>
   </g>
   <g id="patch_5">
    <path d="M 340.873009 458.397445 
L 441.083668 458.397445 
L 441.083668 354.727281 
L 340.873009 354.727281 
z
" clip-path="url(#p1cb31a0c3d)" style="fill: #1f9a8a; stroke: #808080; stroke-linejoin: miter"/>
   </g>
   <g id="patch_6">
    <path d="M 466.136332 458.397445 
L 566.346991 458.397445 
L 566.346991 434.833438 
L 466.136332 434.833438 
z
" clip-path="url(#p1cb31a0c3d)" style="fill: #32b67a; stroke: #808080; stroke-linejoin: miter"/>
   </g>
   <g id="patch_7">
    <path d="M 591.399655 458.397445 
L 691.610313 458.397445 
L 691.610313 365.692555 
L 591.399655 365.692555 
z
" clip-path="url(#p1cb31a0c3d)" style="fill: #6ece58; stroke: #808080; stroke-linejoin: miter"/>
   </g>
   <g id="patch_8">
    <path d="M 716.662978 458.397445 
L 816.873636 458.397445 
L 816.873636 88.859878 
L 716.662978 88.859878 
z
" clip-path="url(#p1cb31a0c3d)" style="fill: #bddf26; stroke: #808080; stroke-linejoin: miter"/>
   </g>
   <g id="LineCollection_1">
    <path d="M 140.451693 449.301039 
L 140.451693 392.098125 
" clip-path="url(#p1cb31a0c3d)" style="fill: none; stroke: #ff6347; stroke-width: 2"/>
   </g>
   <g id="line2d_15">
    <defs>
     <path id="m6f3cd96eab" d="M 5 0 
L -5 -0 
" style="stroke: #ff6347"/>
    </defs>
    <g clip-path="url(#p1cb31a0c3d)">
     <use xlink:href="#m6f3cd96eab" x="140.451693" y="449.301039" style="fill: #ff6347; stroke: #ff6347"/>
    </g>
   </g>
   <g id="line2d_16">
    <g clip-path="url(#p1cb31a0c3d)">
     <use xlink:href="#m6f3cd96eab" x="140.451693" y="392.098125" style="fill: #ff6347; stroke: #ff6347"/>
    </g>
   </g>
   <g id="LineCollection_2">
    <path d="M 140.451693 449.301039 
L 140.451693 392.098125 
" clip-path="url(#p1cb31a0c3d)" style="fill: none; stroke: #ff6347; stroke-width: 2"/>
   </g>
   <g id="line2d_17">
    <g clip-path="url(#p1cb31a0c3d)">
     <use xlink:href="#m6f3cd96eab" x="140.451693" y="449.301039" style="fill: #ff6347; stroke: #ff6347"/>
    </g>
   </g>
   <g id="line2d_18">
    <g clip-path="url(#p1cb31a0c3d)">
     <use xlink:href="#m6f3cd96eab" x="140.451693" y="392.098125" style="fill: #ff6347; stroke: #ff6347"/>
    </g>
   </g>
   <g id="LineCollection_3">
    <path d="M 265.715016 346.997745 
L 265.715016 346.840816 
" clip-path="url(#p1cb31a0c3d)" style="fill: none; stroke: #ff6347; stroke-width: 2"/>
   </g>
   <g id="line2d_19">
    <g clip-path="url(#p1cb31a0c3d)">
     <use xlink:href="#m6f3cd96eab" x="265.715016" y="346.997745" style="fill: #ff6347; stroke: #ff6347"/>
    </g>
   </g>
   <g id="line2d_20">
    <g clip-path="url(#p1cb31a0c3d)">
     <use xlink:href="#m6f3cd96eab" x="265.715016" y="346.840816" style="fill: #ff6347; stroke: #ff6347"/>
    </g>
   </g>
   <g id="LineCollection_4">
    <path d="M 265.715016 346.997745 
L 265.715016 346.840816 
" clip-path="url(#p1cb31a0c3d)" style="fill: none; stroke: #ff6347; stroke-width: 2"/>
   </g>
   <g id="line2d_21">
    <g clip-path="url(#p1cb31a0c3d)">
     <use xlink:href="#m6f3cd96eab" x="265.715016" y="346.997745" style="fill: #ff6347; stroke: #ff6347"/>
    </g>
   </g>
   <g id="line2d_22">
    <g clip-path="url(#p1cb31a0c3d)">
     <use xlink:href="#m6f3cd96eab" x="265.715016" y="346.840816" style="fill: #ff6347; stroke: #ff6347"/>
    </g>
   </g>
   <g id="LineCollection_5">
    <path d="M 390.978339 371.32845 
L 390.978339 338.126111 
" clip-path="url(#p1cb31a0c3d)" style="fill: none; stroke: #ff6347; stroke-width: 2"/>
   </g>
   <g id="line2d_23">
    <g clip-path="url(#p1cb31a0c3d)">
     <use xlink:href="#m6f3cd96eab" x="390.978339" y="371.32845" style="fill: #ff6347; stroke: #ff6347"/>
    </g>
   </g>
   <g id="line2d_24">
    <g clip-path="url(#p1cb31a0c3d)">
     <use xlink:href="#m6f3cd96eab" x="390.978339" y="338.126111" style="fill: #ff6347; stroke: #ff6347"/>
    </g>
   </g>
   <g id="LineCollection_6">
    <path d="M 390.978339 371.32845 
L 390.978339 338.126111 
" clip-path="url(#p1cb31a0c3d)" style="fill: none; stroke: #ff6347; stroke-width: 2"/>
   </g>
   <g id="line2d_25">
    <g clip-path="url(#p1cb31a0c3d)">
     <use xlink:href="#m6f3cd96eab" x="390.978339" y="371.32845" style="fill: #ff6347; stroke: #ff6347"/>
    </g>
   </g>
   <g id="line2d_26">
    <g clip-path="url(#p1cb31a0c3d)">
     <use xlink:href="#m6f3cd96eab" x="390.978339" y="338.126111" style="fill: #ff6347; stroke: #ff6347"/>
    </g>
   </g>
   <g id="LineCollection_7">
    <path d="M 516.241661 439.672764 
L 516.241661 429.994112 
" clip-path="url(#p1cb31a0c3d)" style="fill: none; stroke: #ff6347; stroke-width: 2"/>
   </g>
   <g id="line2d_27">
    <g clip-path="url(#p1cb31a0c3d)">
     <use xlink:href="#m6f3cd96eab" x="516.241661" y="439.672764" style="fill: #ff6347; stroke: #ff6347"/>
    </g>
   </g>
   <g id="line2d_28">
    <g clip-path="url(#p1cb31a0c3d)">
     <use xlink:href="#m6f3cd96eab" x="516.241661" y="429.994112" style="fill: #ff6347; stroke: #ff6347"/>
    </g>
   </g>
   <g id="LineCollection_8">
    <path d="M 516.241661 439.672764 
L 516.241661 429.994112 
" clip-path="url(#p1cb31a0c3d)" style="fill: none; stroke: #ff6347; stroke-width: 2"/>
   </g>
   <g id="line2d_29">
    <g clip-path="url(#p1cb31a0c3d)">
     <use xlink:href="#m6f3cd96eab" x="516.241661" y="439.672764" style="fill: #ff6347; stroke: #ff6347"/>
    </g>
   </g>
   <g id="line2d_30">
    <g clip-path="url(#p1cb31a0c3d)">
     <use xlink:href="#m6f3cd96eab" x="516.241661" y="429.994112" style="fill: #ff6347; stroke: #ff6347"/>
    </g>
   </g>
   <g id="LineCollection_9">
    <path d="M 641.504984 407.368912 
L 641.504984 324.016197 
" clip-path="url(#p1cb31a0c3d)" style="fill: none; stroke: #ff6347; stroke-width: 2"/>
   </g>
   <g id="line2d_31">
    <g clip-path="url(#p1cb31a0c3d)">
     <use xlink:href="#m6f3cd96eab" x="641.504984" y="407.368912" style="fill: #ff6347; stroke: #ff6347"/>
    </g>
   </g>
   <g id="line2d_32">
    <g clip-path="url(#p1cb31a0c3d)">
     <use xlink:href="#m6f3cd96eab" x="641.504984" y="324.016197" style="fill: #ff6347; stroke: #ff6347"/>
    </g>
   </g>
   <g id="LineCollection_10">
    <path d="M 641.504984 407.368912 
L 641.504984 324.016197 
" clip-path="url(#p1cb31a0c3d)" style="fill: none; stroke: #ff6347; stroke-width: 2"/>
   </g>
   <g id="line2d_33">
    <g clip-path="url(#p1cb31a0c3d)">
     <use xlink:href="#m6f3cd96eab" x="641.504984" y="407.368912" style="fill: #ff6347; stroke: #ff6347"/>
    </g>
   </g>
   <g id="line2d_34">
    <g clip-path="url(#p1cb31a0c3d)">
     <use xlink:href="#m6f3cd96eab" x="641.504984" y="324.016197" style="fill: #ff6347; stroke: #ff6347"/>
    </g>
   </g>
   <g id="LineCollection_11">
    <path d="M 766.768307 136.005592 
L 766.768307 41.714164 
" clip-path="url(#p1cb31a0c3d)" style="fill: none; stroke: #ff6347; stroke-width: 2"/>
   </g>
   <g id="line2d_35">
    <g clip-path="url(#p1cb31a0c3d)">
     <use xlink:href="#m6f3cd96eab" x="766.768307" y="136.005592" style="fill: #ff6347; stroke: #ff6347"/>
    </g>
   </g>
   <g id="line2d_36">
    <g clip-path="url(#p1cb31a0c3d)">
     <use xlink:href="#m6f3cd96eab" x="766.768307" y="41.714164" style="fill: #ff6347; stroke: #ff6347"/>
    </g>
   </g>
   <g id="LineCollection_12">
    <path d="M 766.768307 136.005592 
L 766.768307 41.714164 
" clip-path="url(#p1cb31a0c3d)" style="fill: none; stroke: #ff6347; stroke-width: 2"/>
   </g>
   <g id="line2d_37">
    <g clip-path="url(#p1cb31a0c3d)">
     <use xlink:href="#m6f3cd96eab" x="766.768307" y="136.005592" style="fill: #ff6347; stroke: #ff6347"/>
    </g>
   </g>
   <g id="line2d_38">
    <g clip-path="url(#p1cb31a0c3d)">
     <use xlink:href="#m6f3cd96eab" x="766.768307" y="41.714164" style="fill: #ff6347; stroke: #ff6347"/>
    </g>
   </g>
   <g id="patch_9">
    <path d="M 54.02 458.397445 
L 54.02 20.88 
" style="fill: none; stroke: #cccccc; stroke-width: 0.8; stroke-linejoin: miter; stroke-linecap: square"/>
   </g>
   <g id="patch_10">
    <path d="M 853.2 458.397445 
L 853.2 20.88 
" style="fill: none; stroke: #cccccc; stroke-width: 0.8; stroke-linejoin: miter; stroke-linecap: square"/>
   </g>
   <g id="patch_11">
    <path d="M 54.02 458.397445 
L 853.2 458.397445 
" style="fill: none; stroke: #cccccc; stroke-width: 0.8; stroke-linejoin: miter; stroke-linecap: square"/>
   </g>
   <g id="patch_12">
    <path d="M 54.02 20.88 
L 853.2 20.88 
" style="fill: none; stroke: #cccccc; stroke-width: 0.8; stroke-linejoin: miter; stroke-linecap: square"/>
   </g>
   <g id="text_17">
    <!-- 1.69s ± 1.28 -->
    <g transform="translate(105.132943 386.703472) scale(0.1 -0.1)">
     <defs>
      <path id="DejaVuSans-Bold-31" d="M 750 831 
L 1813 831 
L 1813 3847 
L 722 3622 
L 722 4441 
L 1806 4666 
L 2950 4666 
L 2950 831 
L 4013 831 
L 4013 0 
L 750 0 
L 750 831 
z
" transform="scale(0.015625)"/>
      <path id="DejaVuSans-Bold-2e" d="M 653 1209 
L 1778 1209 
L 1778 0 
L 653 0 
L 653 1209 
z
" transform="scale(0.015625)"/>
      <path id="DejaVuSans-Bold-36" d="M 2316 2303 
Q 2000 2303 1842 2098 
Q 1684 1894 1684 1484 
Q 1684 1075 1842 870 
Q 2000 666 2316 666 
Q 2634 666 2792 870 
Q 2950 1075 2950 1484 
Q 2950 1894 2792 2098 
Q 2634 2303 2316 2303 
z
M 3803 4544 
L 3803 3681 
Q 3506 3822 3243 3889 
Q 2981 3956 2731 3956 
Q 2194 3956 1894 3657 
Q 1594 3359 1544 2772 
Q 1750 2925 1990 3001 
Q 2231 3078 2516 3078 
Q 3231 3078 3670 2659 
Q 4109 2241 4109 1563 
Q 4109 813 3618 361 
Q 3128 -91 2303 -91 
Q 1394 -91 895 523 
Q 397 1138 397 2266 
Q 397 3422 980 4083 
Q 1563 4744 2578 4744 
Q 2900 4744 3203 4694 
Q 3506 4644 3803 4544 
z
" transform="scale(0.015625)"/>
      <path id="DejaVuSans-Bold-39" d="M 641 103 
L 641 966 
Q 928 831 1190 764 
Q 1453 697 1709 697 
Q 2247 697 2547 995 
Q 2847 1294 2900 1881 
Q 2688 1725 2447 1647 
Q 2206 1569 1925 1569 
Q 1209 1569 770 1986 
Q 331 2403 331 3084 
Q 331 3838 820 4291 
Q 1309 4744 2131 4744 
Q 3044 4744 3544 4128 
Q 4044 3513 4044 2388 
Q 4044 1231 3459 570 
Q 2875 -91 1856 -91 
Q 1528 -91 1228 -42 
Q 928 6 641 103 
z
M 2125 2350 
Q 2441 2350 2600 2554 
Q 2759 2759 2759 3169 
Q 2759 3575 2600 3781 
Q 2441 3988 2125 3988 
Q 1809 3988 1650 3781 
Q 1491 3575 1491 3169 
Q 1491 2759 1650 2554 
Q 1809 2350 2125 2350 
z
" transform="scale(0.015625)"/>
      <path id="DejaVuSans-Bold-73" d="M 3272 3391 
L 3272 2541 
Q 2913 2691 2578 2766 
Q 2244 2841 1947 2841 
Q 1628 2841 1473 2761 
Q 1319 2681 1319 2516 
Q 1319 2381 1436 2309 
Q 1553 2238 1856 2203 
L 2053 2175 
Q 2913 2066 3209 1816 
Q 3506 1566 3506 1031 
Q 3506 472 3093 190 
Q 2681 -91 1863 -91 
Q 1516 -91 1145 -36 
Q 775 19 384 128 
L 384 978 
Q 719 816 1070 734 
Q 1422 653 1784 653 
Q 2113 653 2278 743 
Q 2444 834 2444 1013 
Q 2444 1163 2330 1236 
Q 2216 1309 1875 1350 
L 1678 1375 
Q 931 1469 631 1722 
Q 331 1975 331 2491 
Q 331 3047 712 3315 
Q 1094 3584 1881 3584 
Q 2191 3584 2531 3537 
Q 2872 3491 3272 3391 
z
" transform="scale(0.015625)"/>
      <path id="DejaVuSans-Bold-20" transform="scale(0.015625)"/>
      <path id="DejaVuSans-Bold-b1" d="M 3053 4013 
L 3053 2906 
L 4684 2906 
L 4684 2169 
L 3053 2169 
L 3053 1063 
L 2309 1063 
L 2309 2169 
L 678 2169 
L 678 2906 
L 2309 2906 
L 2309 4013 
L 3053 4013 
z
M 678 744 
L 4684 744 
L 4684 0 
L 678 0 
L 678 744 
z
" transform="scale(0.015625)"/>
      <path id="DejaVuSans-Bold-32" d="M 1844 884 
L 3897 884 
L 3897 0 
L 506 0 
L 506 884 
L 2209 2388 
Q 2438 2594 2547 2791 
Q 2656 2988 2656 3200 
Q 2656 3528 2436 3728 
Q 2216 3928 1850 3928 
Q 1569 3928 1234 3808 
Q 900 3688 519 3450 
L 519 4475 
Q 925 4609 1322 4679 
Q 1719 4750 2100 4750 
Q 2938 4750 3402 4381 
Q 3866 4013 3866 3353 
Q 3866 2972 3669 2642 
Q 3472 2313 2841 1759 
L 1844 884 
z
" transform="scale(0.015625)"/>
      <path id="DejaVuSans-Bold-38" d="M 2228 2088 
Q 1891 2088 1709 1903 
Q 1528 1719 1528 1375 
Q 1528 1031 1709 848 
Q 1891 666 2228 666 
Q 2563 666 2741 848 
Q 2919 1031 2919 1375 
Q 2919 1722 2741 1905 
Q 2563 2088 2228 2088 
z
M 1350 2484 
Q 925 2613 709 2878 
Q 494 3144 494 3541 
Q 494 4131 934 4440 
Q 1375 4750 2228 4750 
Q 3075 4750 3515 4442 
Q 3956 4134 3956 3541 
Q 3956 3144 3739 2878 
Q 3522 2613 3097 2484 
Q 3572 2353 3814 2058 
Q 4056 1763 4056 1313 
Q 4056 619 3595 264 
Q 3134 -91 2228 -91 
Q 1319 -91 855 264 
Q 391 619 391 1313 
Q 391 1763 633 2058 
Q 875 2353 1350 2484 
z
M 1631 3419 
Q 1631 3141 1786 2991 
Q 1941 2841 2228 2841 
Q 2509 2841 2662 2991 
Q 2816 3141 2816 3419 
Q 2816 3697 2662 3845 
Q 2509 3994 2228 3994 
Q 1941 3994 1786 3844 
Q 1631 3694 1631 3419 
z
" transform="scale(0.015625)"/>
     </defs>
     <use xlink:href="#DejaVuSans-Bold-31"/>
     <use xlink:href="#DejaVuSans-Bold-2e" x="69.580078"/>
     <use xlink:href="#DejaVuSans-Bold-36" x="107.568359"/>
     <use xlink:href="#DejaVuSans-Bold-39" x="177.148438"/>
     <use xlink:href="#DejaVuSans-Bold-73" x="246.728516"/>
     <use xlink:href="#DejaVuSans-Bold-20" x="306.25"/>
     <use xlink:href="#DejaVuSans-Bold-b1" x="341.064453"/>
     <use xlink:href="#DejaVuSans-Bold-20" x="424.853516"/>
     <use xlink:href="#DejaVuSans-Bold-31" x="459.667969"/>
     <use xlink:href="#DejaVuSans-Bold-2e" x="529.248047"/>
     <use xlink:href="#DejaVuSans-Bold-32" x="567.236328"/>
     <use xlink:href="#DejaVuSans-Bold-38" x="636.816406"/>
    </g>
   </g>
   <g id="text_18">
    <!-- 4.98s ± 0.00 -->
    <g transform="translate(230.396266 339.183297) scale(0.1 -0.1)">
     <defs>
      <path id="DejaVuSans-Bold-34" d="M 2356 3675 
L 1038 1722 
L 2356 1722 
L 2356 3675 
z
M 2156 4666 
L 3494 4666 
L 3494 1722 
L 4159 1722 
L 4159 850 
L 3494 850 
L 3494 0 
L 2356 0 
L 2356 850 
L 288 850 
L 288 1881 
L 2156 4666 
z
" transform="scale(0.015625)"/>
      <path id="DejaVuSans-Bold-30" d="M 2944 2338 
Q 2944 3213 2780 3570 
Q 2616 3928 2228 3928 
Q 1841 3928 1675 3570 
Q 1509 3213 1509 2338 
Q 1509 1453 1675 1090 
Q 1841 728 2228 728 
Q 2613 728 2778 1090 
Q 2944 1453 2944 2338 
z
M 4147 2328 
Q 4147 1169 3647 539 
Q 3147 -91 2228 -91 
Q 1306 -91 806 539 
Q 306 1169 306 2328 
Q 306 3491 806 4120 
Q 1306 4750 2228 4750 
Q 3147 4750 3647 4120 
Q 4147 3491 4147 2328 
z
" transform="scale(0.015625)"/>
     </defs>
     <use xlink:href="#DejaVuSans-Bold-34"/>
     <use xlink:href="#DejaVuSans-Bold-2e" x="69.580078"/>
     <use xlink:href="#DejaVuSans-Bold-39" x="107.568359"/>
     <use xlink:href="#DejaVuSans-Bold-38" x="177.148438"/>
     <use xlink:href="#DejaVuSans-Bold-73" x="246.728516"/>
     <use xlink:href="#DejaVuSans-Bold-20" x="306.25"/>
     <use xlink:href="#DejaVuSans-Bold-b1" x="341.064453"/>
     <use xlink:href="#DejaVuSans-Bold-20" x="424.853516"/>
     <use xlink:href="#DejaVuSans-Bold-30" x="459.667969"/>
     <use xlink:href="#DejaVuSans-Bold-2e" x="529.248047"/>
     <use xlink:href="#DejaVuSans-Bold-30" x="567.236328"/>
     <use xlink:href="#DejaVuSans-Bold-30" x="636.816406"/>
    </g>
   </g>
   <g id="text_19">
    <!-- 4.64s ± 0.74 -->
    <g transform="translate(355.659589 330.032857) scale(0.1 -0.1)">
     <defs>
      <path id="DejaVuSans-Bold-37" d="M 428 4666 
L 3944 4666 
L 3944 3988 
L 2125 0 
L 953 0 
L 2675 3781 
L 428 3781 
L 428 4666 
z
" transform="scale(0.015625)"/>
     </defs>
     <use xlink:href="#DejaVuSans-Bold-34"/>
     <use xlink:href="#DejaVuSans-Bold-2e" x="69.580078"/>
     <use xlink:href="#DejaVuSans-Bold-36" x="107.568359"/>
     <use xlink:href="#DejaVuSans-Bold-34" x="177.148438"/>
     <use xlink:href="#DejaVuSans-Bold-73" x="246.728516"/>
     <use xlink:href="#DejaVuSans-Bold-20" x="306.25"/>
     <use xlink:href="#DejaVuSans-Bold-b1" x="341.064453"/>
     <use xlink:href="#DejaVuSans-Bold-20" x="424.853516"/>
     <use xlink:href="#DejaVuSans-Bold-30" x="459.667969"/>
     <use xlink:href="#DejaVuSans-Bold-2e" x="529.248047"/>
     <use xlink:href="#DejaVuSans-Bold-37" x="567.236328"/>
     <use xlink:href="#DejaVuSans-Bold-34" x="636.816406"/>
    </g>
   </g>
   <g id="text_20">
    <!-- 1.05s ± 0.22 -->
    <g transform="translate(480.922911 426.494258) scale(0.1 -0.1)">
     <defs>
      <path id="DejaVuSans-Bold-35" d="M 678 4666 
L 3669 4666 
L 3669 3781 
L 1638 3781 
L 1638 3059 
Q 1775 3097 1914 3117 
Q 2053 3138 2203 3138 
Q 3056 3138 3531 2711 
Q 4006 2284 4006 1522 
Q 4006 766 3489 337 
Q 2972 -91 2053 -91 
Q 1656 -91 1267 -14 
Q 878 63 494 219 
L 494 1166 
Q 875 947 1217 837 
Q 1559 728 1863 728 
Q 2300 728 2551 942 
Q 2803 1156 2803 1522 
Q 2803 1891 2551 2103 
Q 2300 2316 1863 2316 
Q 1603 2316 1309 2248 
Q 1016 2181 678 2041 
L 678 4666 
z
" transform="scale(0.015625)"/>
     </defs>
     <use xlink:href="#DejaVuSans-Bold-31"/>
     <use xlink:href="#DejaVuSans-Bold-2e" x="69.580078"/>
     <use xlink:href="#DejaVuSans-Bold-30" x="107.568359"/>
     <use xlink:href="#DejaVuSans-Bold-35" x="177.148438"/>
     <use xlink:href="#DejaVuSans-Bold-73" x="246.728516"/>
     <use xlink:href="#DejaVuSans-Bold-20" x="306.25"/>
     <use xlink:href="#DejaVuSans-Bold-b1" x="341.064453"/>
     <use xlink:href="#DejaVuSans-Bold-20" x="424.853516"/>
     <use xlink:href="#DejaVuSans-Bold-30" x="459.667969"/>
     <use xlink:href="#DejaVuSans-Bold-2e" x="529.248047"/>
     <use xlink:href="#DejaVuSans-Bold-32" x="567.236328"/>
     <use xlink:href="#DejaVuSans-Bold-32" x="636.816406"/>
    </g>
   </g>
   <g id="text_21">
    <!-- 4.15s ± 1.86 -->
    <g transform="translate(606.186234 315.217447) scale(0.1 -0.1)">
     <use xlink:href="#DejaVuSans-Bold-34"/>
     <use xlink:href="#DejaVuSans-Bold-2e" x="69.580078"/>
     <use xlink:href="#DejaVuSans-Bold-31" x="107.568359"/>
     <use xlink:href="#DejaVuSans-Bold-35" x="177.148438"/>
     <use xlink:href="#DejaVuSans-Bold-73" x="246.728516"/>
     <use xlink:href="#DejaVuSans-Bold-20" x="306.25"/>
     <use xlink:href="#DejaVuSans-Bold-b1" x="341.064453"/>
     <use xlink:href="#DejaVuSans-Bold-20" x="424.853516"/>
     <use xlink:href="#DejaVuSans-Bold-31" x="459.667969"/>
     <use xlink:href="#DejaVuSans-Bold-2e" x="529.248047"/>
     <use xlink:href="#DejaVuSans-Bold-38" x="567.236328"/>
     <use xlink:href="#DejaVuSans-Bold-36" x="636.816406"/>
    </g>
   </g>
   <g id="text_22">
    <!-- 16.52s ± 2.11 -->
    <g transform="translate(727.970651 18.800313) scale(0.1 -0.1)">
     <use xlink:href="#DejaVuSans-Bold-31"/>
     <use xlink:href="#DejaVuSans-Bold-36" x="69.580078"/>
     <use xlink:href="#DejaVuSans-Bold-2e" x="139.160156"/>
     <use xlink:href="#DejaVuSans-Bold-35" x="177.148438"/>
     <use xlink:href="#DejaVuSans-Bold-32" x="246.728516"/>
     <use xlink:href="#DejaVuSans-Bold-73" x="316.308594"/>
     <use xlink:href="#DejaVuSans-Bold-20" x="375.830078"/>
     <use xlink:href="#DejaVuSans-Bold-b1" x="410.644531"/>
     <use xlink:href="#DejaVuSans-Bold-20" x="494.433594"/>
     <use xlink:href="#DejaVuSans-Bold-32" x="529.248047"/>
     <use xlink:href="#DejaVuSans-Bold-2e" x="598.828125"/>
     <use xlink:href="#DejaVuSans-Bold-31" x="636.816406"/>
     <use xlink:href="#DejaVuSans-Bold-31" x="706.396484"/>
    </g>
   </g>
   <g id="legend_1">
    <g id="patch_13">
     <path d="M 61.02 58.23625 
L 189.52625 58.23625 
Q 191.52625 58.23625 191.52625 56.23625 
L 191.52625 27.88 
Q 191.52625 25.88 189.52625 25.88 
L 61.02 25.88 
Q 59.02 25.88 59.02 27.88 
L 59.02 56.23625 
Q 59.02 58.23625 61.02 58.23625 
z
" style="fill: #ffffff; opacity: 0.8; stroke: #cccccc; stroke-linejoin: miter"/>
    </g>
    <g id="patch_14">
     <path d="M 63.02 37.478438 
L 83.02 37.478438 
L 83.02 30.478438 
L 63.02 30.478438 
z
" style="fill: #355f8d; stroke: #808080; stroke-linejoin: miter"/>
    </g>
    <g id="text_23">
     <!-- Mean Duration -->
     <g style="fill: #262626" transform="translate(91.02 37.478438) scale(0.1 -0.1)">
      <defs>
       <path id="DejaVuSans-4d" d="M 628 4666 
L 1569 4666 
L 2759 1491 
L 3956 4666 
L 4897 4666 
L 4897 0 
L 4281 0 
L 4281 4097 
L 3078 897 
L 2444 897 
L 1241 4097 
L 1241 0 
L 628 0 
L 628 4666 
z
" transform="scale(0.015625)"/>
      </defs>
      <use xlink:href="#DejaVuSans-4d"/>
      <use xlink:href="#DejaVuSans-65" x="86.279297"/>
      <use xlink:href="#DejaVuSans-61" x="147.802734"/>
      <use xlink:href="#DejaVuSans-6e" x="209.082031"/>
      <use xlink:href="#DejaVuSans-20" x="272.460938"/>
      <use xlink:href="#DejaVuSans-44" x="304.248047"/>
      <use xlink:href="#DejaVuSans-75" x="381.25"/>
      <use xlink:href="#DejaVuSans-72" x="444.628906"/>
      <use xlink:href="#DejaVuSans-61" x="485.742188"/>
      <use xlink:href="#DejaVuSans-74" x="547.021484"/>
      <use xlink:href="#DejaVuSans-69" x="586.230469"/>
      <use xlink:href="#DejaVuSans-6f" x="614.013672"/>
      <use xlink:href="#DejaVuSans-6e" x="675.195312"/>
     </g>
    </g>
    <g id="LineCollection_13">
     <path d="M 73.02 53.656563 
L 73.02 43.656563 
" style="fill: none; stroke: #ff6347; stroke-width: 2"/>
    </g>
    <g id="line2d_39">
     <g>
      <use xlink:href="#m6f3cd96eab" x="73.02" y="53.656563" style="fill: #ff6347; stroke: #ff6347"/>
     </g>
    </g>
    <g id="line2d_40">
     <g>
      <use xlink:href="#m6f3cd96eab" x="73.02" y="43.656563" style="fill: #ff6347; stroke: #ff6347"/>
     </g>
    </g>
    <g id="text_24">
     <!-- Standard Deviation -->
     <g style="fill: #262626" transform="translate(91.02 52.156563) scale(0.1 -0.1)">
      <use xlink:href="#DejaVuSans-53"/>
      <use xlink:href="#DejaVuSans-74" x="63.476562"/>
      <use xlink:href="#DejaVuSans-61" x="102.685547"/>
      <use xlink:href="#DejaVuSans-6e" x="163.964844"/>
      <use xlink:href="#DejaVuSans-64" x="227.34375"/>
      <use xlink:href="#DejaVuSans-61" x="290.820312"/>
      <use xlink:href="#DejaVuSans-72" x="352.099609"/>
      <use xlink:href="#DejaVuSans-64" x="391.462891"/>
      <use xlink:href="#DejaVuSans-20" x="454.939453"/>
      <use xlink:href="#DejaVuSans-44" x="486.726562"/>
      <use xlink:href="#DejaVuSans-65" x="563.728516"/>
      <use xlink:href="#DejaVuSans-76" x="625.251953"/>
      <use xlink:href="#DejaVuSans-69" x="684.431641"/>
      <use xlink:href="#DejaVuSans-61" x="712.214844"/>
      <use xlink:href="#DejaVuSans-74" x="773.494141"/>
      <use xlink:href="#DejaVuSans-69" x="812.703125"/>
      <use xlink:href="#DejaVuSans-6f" x="840.486328"/>
      <use xlink:href="#DejaVuSans-6e" x="901.667969"/>
     </g>
    </g>
   </g>
  </g>
 </g>
 <defs>
  <clipPath id="p1cb31a0c3d">
   <rect x="54.02" y="20.88" width="799.18" height="437.517445"/>
  </clipPath>
 </defs>
</svg>
